<?xml version="1.0" encoding="utf-8"?>
<!-- Generator: Adobe Illustrator 19.2.1, SVG Export Plug-In . SVG Version: 6.00 Build 0)  -->
<svg version="1.1" id="layer" xmlns="http://www.w3.org/2000/svg" xmlns:xlink="http://www.w3.org/1999/xlink" x="0px" y="0px"
	 viewBox="0 0 652 652" style="enable-background:new 0 0 652 652;" xml:space="preserve">
<style type="text/css">
	.st0{fill:#FFFFFF;}
	.st1{clip-path:url(#SVGID_2_);fill:#0067A6;}
	.st2{clip-path:url(#SVGID_2_);fill:#004678;}
	.st3{clip-path:url(#SVGID_2_);fill:#FFFFFF;}
	.st4{clip-path:url(#SVGID_2_);fill:#00A2E5;}
	.st5{clip-path:url(#SVGID_2_);fill:#62BB46;}
	.st6{clip-path:url(#SVGID_2_);fill:#FDB927;}
</style>
<rect x="20.2" y="236" class="st0" width="600" height="171.4"/>
<g>
	<defs>
		<rect id="SVGID_1_" x="20.2" y="236" width="600" height="171.4"/>
	</defs>
	<clipPath id="SVGID_2_">
		<use xlink:href="#SVGID_1_"  style="overflow:visible;"/>
	</clipPath>
	<path class="st1" d="M59.5,355.6c5.1,4.8,9.1,8.7,17.8,7.9c9.4-0.9,15-5.3,20.4-9.5c5.5-4.3,11.2-8.7,20-8.8
		c4.9,0,10.2,2.7,15.9,5.5c5.8,2.8,11.7,5.8,16.8,5.8c2.8,0,7.7-2.8,12-5.3c5-2.9,10.2-5.9,14.8-6.3c8.4-0.8,13,1.9,16.7,4.2
		c2.5,1.5,4.5,2.7,7.4,2.9c4.2,0.3,6.8-0.8,10.5-2.3c4.3-1.7,9.4-3.9,18.4-4.5v-7.8c-2.6,1.1-5.9,2-9.9,1.9
		c-4.8-0.2-7.3-1.5-9.4-2.6c-1.9-1-3.2-1.6-6.3-1.6c-3.1,0-5.8,1.3-8.7,2.7c-3.3,1.6-6.7,3.2-10.8,3c-2.2-0.1-4.8-0.9-7.8-1.8
		c-3.6-1.1-7.6-2.4-11-2.4c-2.4,0-5.1,1.4-8.2,3.1c-4.8,2.6-10.8,5.8-18.4,4.6c-3.8-0.6-7.1-2.4-10.2-4.1c-3.7-2-7.6-4.1-12.8-4.7
		c-7.8-0.8-14.4,0.9-21.5,2.8c-7.1,1.9-14.3,3.8-23.6,3.6c-7.7-0.2-13-3.3-18.7-6.6c-4.7-2.8-9.9-5.9-17.9-7.7v17.5
		c0.8,0,1.1,0,1.5,0C48.3,344.9,54.3,350.6,59.5,355.6"/>
	<path class="st2" d="M214.2,355.4c-4,1.6-7.7,3.1-13.3,2.8c-4.4-0.3-7.5-2.1-10.2-3.7c-3.5-2.1-6.5-3.9-12.8-3.3
		c-3.2,0.3-7.8,3-12.3,5.5c-5.5,3.1-10.7,6.1-15.1,6.1c-6.6,0-13.3-3.3-19.7-6.4c-5-2.5-9.7-4.8-13.1-4.8c-6.6,0-10.8,3.3-16.1,7.4
		c-5.9,4.6-12.5,9.8-23.8,10.9c-11.6,1.1-17.5-4.6-22.8-9.6c-4.8-4.6-9.4-9-18.7-9c-0.4,0-0.7,0-1.5,0v41.5h195.2v-41.3
		C222.5,352,218.1,353.8,214.2,355.4"/>
	<path class="st3" d="M55.1,360.2c5.2,5,11.2,10.7,22.8,9.6c11.3-1,17.9-6.2,23.8-10.9c5.3-4.1,9.4-7.4,16-7.4
		c3.4,0,8.1,2.3,13.1,4.8c6.4,3.2,13,6.4,19.7,6.4c4.5,0,9.7-3,15.1-6.1c4.5-2.6,9.1-5.2,12.3-5.5c6.3-0.6,9.3,1.2,12.8,3.3
		c2.7,1.6,5.8,3.5,10.2,3.7c5.6,0.4,9.4-1.2,13.3-2.8c3.9-1.6,8.3-3.4,16-4V345c-8.9,0.7-14.1,2.8-18.4,4.5
		c-3.7,1.5-6.4,2.6-10.5,2.3c-2.9-0.2-4.9-1.4-7.4-2.9c-3.7-2.2-8.3-5-16.7-4.2c-4.6,0.5-9.8,3.4-14.8,6.3c-4.3,2.5-9.2,5.3-12,5.3
		c-5.1,0-11.1-2.9-16.8-5.8c-5.7-2.8-11-5.5-15.9-5.5c-8.8,0-14.5,4.5-20,8.8c-5.4,4.3-11,8.7-20.4,9.5c-8.7,0.8-12.7-3-17.8-7.9
		c-5.3-5-11.3-10.8-23.1-10.8c-0.4,0-0.7,0-1.5,0v6.3c0.8,0,1.1,0,1.5,0C45.7,351.2,50.3,355.6,55.1,360.2"/>
	<path class="st4" d="M68.4,264.3c14.3,0,20.9,8.8,28.8,21.1c21.8,33.7,65.2,30.6,133,26.7v-61.4H35v41.7
		C37,289.5,54.9,264.3,68.4,264.3"/>
	<path class="st3" d="M97.2,285.3c-7.9-12.3-14.5-21.1-28.8-21.1c-13.5,0-31.4,25.2-33.4,28.1v10.8c3.2-5.2,20.2-32.5,33.1-32.5
		c14.3,0,19.6,10.2,27.2,22.7c18,30,66.7,28.9,135,25.1v-6.4C162.4,315.9,118.9,319,97.2,285.3"/>
	<path class="st5" d="M35,320.4c9.5,2,15.7,5.7,21,8.8c5.3,3.1,9.4,5.6,15.3,5.7c8.3,0.2,15.1-1.6,21.7-3.4
		c7.3-1.9,14.9-3.9,23.9-2.9c6.6,0.7,11.2,3.2,15.4,5.5c3.4,1.9,4.5,2.8,8,3.3c5.4,0.8,9.6-1.4,14.1-3.9c3.6-1.9,7.3-3.9,11.4-3.9
		c4.4,0,9,1.4,13.1,2.7c2.4,0.8,4.8,1.5,6.1,1.6c2.4,0.1,4.8-1,7.5-2.3c3.3-1.6,7-3.3,11.6-3.3c4.7,0,7.2,1.3,9.4,2.4
		c1.9,0.9,3.3,1.7,6.6,1.8c3.7,0.2,6.5-1.1,9.2-2.3c0.1-0.1,0.3-0.1,0.8-0.2v-11.4c-68.3,3.9-116.9,4.9-135-25.1
		c-7.5-12.5-12.9-22.7-27.2-22.7c-12.9,0-29.9,27.2-33.1,32.5L35,320.4z"/>
	<path class="st3" d="M35,322.3l0-1.9c9.5,2,15.7,5.7,21,8.8c5.3,3.1,9.4,5.6,15.3,5.7c8.3,0.2,15.1-1.6,21.7-3.4
		c7.3-1.9,14.9-3.9,23.9-2.9c6.6,0.7,11.3,3.2,15.4,5.5c3.7,2.1,4.7,2.9,8,3.3c5.4,0.7,9.6-1.4,14.1-3.9c3.6-1.9,7.3-3.9,11.4-3.9
		c4.4,0,9,1.4,13.1,2.7c2.4,0.8,4.8,1.5,6.1,1.6c2.4,0.1,4.8-1,7.5-2.3c3.3-1.6,7-3.3,11.6-3.3c4.7,0,7.2,1.3,9.4,2.4
		c1.9,0.9,3.3,1.7,6.6,1.8c3.7,0.2,6.5-1.1,9.2-2.3c0.1-0.1,0.3-0.1,0.8-0.2v1.7v1.9l0,1.4v2.4c-2.6,1.1-5.9,2-9.9,1.9
		c-4.8-0.2-7.3-1.5-9.4-2.6c-1.9-1-3.2-1.6-6.3-1.6c-3.1,0-5.8,1.3-8.7,2.7c-3.3,1.6-6.7,3.2-10.8,3c-2.2-0.1-4.8-0.9-7.8-1.8
		c-3.6-1.1-7.6-2.4-11-2.4c-2.4,0-5.1,1.4-8.2,3.1c-4.8,2.6-10.8,5.8-18.4,4.6c-3.8-0.6-7.1-2.4-10.2-4.1c-3.7-2-7.6-4.1-12.8-4.7
		c-7.8-0.8-14.4,0.9-21.5,2.8c-7.1,1.9-14.3,3.8-23.6,3.6c-7.7-0.2-13-3.3-18.7-6.6c-4.7-2.8-9.9-5.9-17.9-7.7v-2.8L35,322.3z"/>
	<rect x="230.2" y="312.1" class="st3" width="0" height="6.4"/>
	<path class="st3" d="M97.2,285.3c-7.9-12.3-14.5-21.1-28.8-21.1c-13.5,0-31.4,25.2-33.4,28.1v10.8c3.2-5.2,20.2-32.5,33.1-32.5
		c14.3,0,19.6,10.2,27.2,22.7c18,30,66.7,28.9,135,25.1v-6.4C162.4,315.9,118.9,319,97.2,285.3"/>
	<path class="st6" d="M168,272.5L168,272.5c-0.4,0.1-0.9,0.3-1.4,0.6c-6.3,3.2-8,9-6.4,12.8c3,7.3,10.3,9,14.3,7.9
		c4.1-1.2,7.3-3.5,8.9-6.7c1.4-2.8,1.6-5.9,0.4-9.2C182.3,273.9,176,269.7,168,272.5 M172.5,276.5c1.1-0.1,3.2,0.3,4.8,1.5
		c1,0.8,1.6,1.9,1.7,3.1c0.3,3.8-1.2,6.1-4.7,6.9c-4,1-6.9-0.4-8.4-4.1c-0.5-1.2-0.4-2.4,0.3-3.6c1.1-1.9,3.5-3.5,5.8-3.8
		C172.3,276.5,172.4,276.5,172.5,276.5"/>
	<path class="st6" d="M184.7,258.7c-1-0.7-2.3-0.5-2.5-0.4c-2.1,0.5-4,6.2-4.5,8.9c-0.2,0.8,0.3,1.6,1.1,2c0.9,0.5,2.3,0.5,2.9-0.3
		c2.5-3.1,4.2-6.7,3.9-8.6C185.5,259.6,185.2,259,184.7,258.7"/>
	<path class="st6" d="M166.7,268.7c0.9-0.4,1.8-1.2,1.7-2.2c-0.5-3.9-2-7.5-3.6-8.7c-0.6-0.4-1.2-0.6-1.9-0.5
		c-1.2,0.2-1.9,1.3-2,1.4c-1.3,1.9,2.1,7.6,3.4,9.4C164.9,268.8,165.8,269,166.7,268.7"/>
	<path class="st6" d="M154.9,286.3c-4.1,0.5-7.9,1.9-9.1,3.4c-0.6,0.7-0.6,1.4-0.5,1.8c0.2,1.2,1.3,1.9,1.5,2
		c1.8,1.1,7.4-1.7,9.8-3.3c0.7-0.5,1-1.3,0.6-2.2C156.9,287.1,155.9,286.2,154.9,286.3"/>
	<path class="st6" d="M177.5,297c-0.9,0.4-1.8,1.2-1.7,2.2c0.5,3.9,2,7.5,3.6,8.7c0.6,0.4,1.2,0.6,1.9,0.5c0.9-0.2,1.7-0.9,2-1.4
		c1.3-1.9-2.1-7.6-3.4-9.4C179.3,296.9,178.4,296.7,177.5,297"/>
	<path class="st6" d="M188.5,288.1c-0.9-0.2-1.7,0.3-2.1,1.2c-0.4,0.9-0.4,2.1,0.4,2.7c3.2,2.4,7,4,8.9,3.7c0.9-0.1,1.5-0.6,1.7-1
		c0.5-0.7,0.5-1.7,0.4-2.4C197.4,290.2,190.8,288.5,188.5,288.1"/>
	<path class="st6" d="M157.8,273.3c-3.2-2.5-6.9-4.1-8.8-3.9c-0.9,0.1-1.5,0.6-1.8,1c-0.5,0.7-0.6,1.7-0.4,2.4
		c0.5,2.2,7,4.1,9.3,4.5c0.9,0.2,1.7-0.3,2.1-1.2C158.6,275.1,158.6,273.9,157.8,273.3"/>
	<path class="st6" d="M165.4,296.3c-0.9-0.5-2.3-0.5-2.9,0.2c-2.6,3-4.4,6.6-4.2,8.5c0.1,0.7,0.4,1.3,0.9,1.6c1,0.7,2.3,0.5,2.5,0.5
		c2.1-0.4,4.1-6.1,4.7-8.8C166.7,297.5,166.3,296.7,165.4,296.3"/>
	<path class="st6" d="M199.4,274.7c-0.2-1.2-1.3-1.9-1.4-2c-1.8-1.1-7.4,1.6-9.9,3c-0.7,0.4-1,1.3-0.7,2.2c0.3,1,1.2,1.9,2.3,1.8
		c4.1-0.4,7.9-1.7,9.2-3.2C199.4,275.8,199.4,275.1,199.4,274.7"/>
	<path class="st2" d="M620.2,407.4h-600V236h600V407.4z M23.2,404.4h594V239h-594V404.4z"/>
	<path class="st2" d="M251.9,274.9h10.9c2.7,0,4.8,0.7,6.1,2.1c1.1,1.1,1.6,2.4,1.6,4v0.1c0,2.7-1.4,4.1-3.1,5.1
		c2.7,1,4.4,2.6,4.4,5.8v0.1c0,4.3-3.5,6.5-8.8,6.5h-11.2V274.9z M261.7,284.4c2.3,0,3.7-0.7,3.7-2.5v-0.1c0-1.5-1.2-2.4-3.4-2.4
		H257v5H261.7z M263.1,293.9c2.3,0,3.7-0.8,3.7-2.6v-0.1c0-1.6-1.2-2.6-3.8-2.6h-6v5.2H263.1z"/>
	<path class="st2" d="M283.4,274.7h4.8l10.1,23.7h-5.4l-2.2-5.3h-9.9l-2.2,5.3h-5.3L283.4,274.7z M288.9,288.6l-3.1-7.6l-3.1,7.6
		H288.9z"/>
	<polygon class="st2" points="304,289.1 295,274.9 301,274.9 306.6,284.3 312.3,274.9 318.2,274.9 309.2,289 309.2,298.4 304,298.4 
			"/>
	<path class="st2" d="M328.8,286.7L328.8,286.7c0-6.8,5.3-12.2,12.5-12.2c7.3,0,12.5,5.4,12.5,12.1v0.1c0,6.7-5.3,12.2-12.5,12.2
		C334,298.8,328.8,293.4,328.8,286.7 M348.4,286.7L348.4,286.7c0-4.1-3-7.5-7.1-7.5c-4.2,0-7.1,3.3-7.1,7.3v0.1c0,4,3,7.4,7.1,7.4
		C345.5,294,348.4,290.8,348.4,286.7"/>
	<polygon class="st2" points="357.6,274.9 375.5,274.9 375.5,279.6 362.8,279.6 362.8,284.6 374,284.6 374,289.3 362.8,289.3 
		362.8,298.4 357.6,298.4 	"/>
	<path class="st2" d="M388.1,274.9h9.6c5.6,0,9,3.3,9,8.1v0.1c0,5.4-4.2,8.3-9.5,8.3h-3.9v7.1h-5.2V274.9z M397.3,286.8
		c2.6,0,4.1-1.5,4.1-3.6v-0.1c0-2.3-1.6-3.6-4.2-3.6h-4v7.2H397.3z"/>
	<polygon class="st2" points="409.7,274.9 414.9,274.9 414.9,293.7 426.6,293.7 426.6,298.4 409.7,298.4 	"/>
	<polygon class="st2" points="429.6,274.9 447.4,274.9 447.4,279.5 434.8,279.5 434.8,284.3 445.9,284.3 445.9,288.9 434.8,288.9 
		434.8,293.8 447.6,293.8 447.6,298.4 429.6,298.4 	"/>
	<polygon class="st2" points="451.3,274.9 456.1,274.9 467.1,289.4 467.1,274.9 472.2,274.9 472.2,298.4 467.8,298.4 456.4,283.5 
		456.4,298.4 451.3,298.4 	"/>
	<polygon class="st2" points="482.5,279.7 475.4,279.7 475.4,274.9 494.9,274.9 494.9,279.7 487.7,279.7 487.7,298.4 482.5,298.4 	
		"/>
	<polygon class="st2" points="504.6,289.1 495.6,274.9 501.6,274.9 507.2,284.3 512.9,274.9 518.8,274.9 509.8,289 509.8,298.4 
		504.6,298.4 	"/>
	<path class="st1" d="M251.9,309.8h10.8c3,0,5.3,0.8,6.9,2.4c1.3,1.3,2,3.2,2,5.4v0.1c0,3.8-2.1,6.2-5.1,7.3l5.8,8.4h-6.1l-5.1-7.6
		h-0.1h-4v7.6h-5.2V309.8z M262.4,321.3c2.5,0,4-1.3,4-3.3v-0.1c0-2.2-1.6-3.4-4.1-3.4h-5.2v6.8H262.4z"/>
	<polygon class="st1" points="275.5,309.8 293.3,309.8 293.3,314.5 280.7,314.5 280.7,319.3 291.8,319.3 291.8,323.9 280.7,323.9 
		280.7,328.9 293.5,328.9 293.5,333.5 275.5,333.5 	"/>
	<path class="st1" d="M296.3,321.7L296.3,321.7c0-6.8,5.2-12.3,12.4-12.3c4.3,0,6.8,1.1,9.3,3.2l-3.3,3.9c-1.8-1.5-3.4-2.4-6.2-2.4
		c-3.8,0-6.8,3.3-6.8,7.4v0.1c0,4.3,3,7.5,7.2,7.5c1.9,0,3.6-0.5,4.9-1.4v-3.4h-5.2v-4.5h10.3v10.3c-2.4,2.1-5.8,3.7-10.1,3.7
		C301.3,333.9,296.3,328.7,296.3,321.7"/>
	<rect x="323.2" y="309.8" class="st1" width="5.2" height="23.6"/>
	<path class="st1" d="M332.4,321.7L332.4,321.7c0-6.8,5.3-12.3,12.6-12.3c7.3,0,12.5,5.4,12.5,12.2v0.1c0,6.7-5.3,12.2-12.6,12.2
		C337.6,333.9,332.4,328.4,332.4,321.7 M352.1,321.7L352.1,321.7c0-4.1-3-7.5-7.2-7.5c-4.2,0-7.1,3.3-7.1,7.4v0.1c0,4,3,7.4,7.2,7.4
		C349.2,329.1,352.1,325.8,352.1,321.7"/>
	<polygon class="st1" points="361.3,309.8 366.1,309.8 377.2,324.4 377.2,309.8 382.3,309.8 382.3,333.5 377.9,333.5 366.4,318.5 
		366.4,333.5 361.3,333.5 	"/>
	<path class="st1" d="M395.2,309.7h4.8l10.1,23.8h-5.4l-2.2-5.3h-10l-2.2,5.3h-5.3L395.2,309.7z M400.7,323.6l-3.1-7.7l-3.1,7.7
		H400.7z"/>
	<polygon class="st1" points="413,309.8 418.2,309.8 418.2,328.8 430,328.8 430,333.5 413,333.5 	"/>
	<path class="st1" d="M441.3,321.7L441.3,321.7c0-6.8,5.1-12.3,12.3-12.3c4.5,0,7.1,1.5,9.3,3.6l-3.3,3.8c-1.8-1.7-3.7-2.7-6-2.7
		c-4,0-6.8,3.3-6.8,7.4v0.1c0,4,2.8,7.4,6.8,7.4c2.7,0,4.4-1.1,6.2-2.8l3.3,3.3c-2.4,2.6-5.1,4.2-9.7,4.2
		C446.4,333.9,441.3,328.5,441.3,321.7"/>
	<path class="st1" d="M464.7,321.7L464.7,321.7c0-6.8,5.3-12.3,12.6-12.3c7.3,0,12.5,5.4,12.5,12.2v0.1c0,6.7-5.3,12.2-12.6,12.2
		C469.9,333.9,464.7,328.4,464.7,321.7 M484.4,321.7L484.4,321.7c0-4.1-3-7.5-7.2-7.5c-4.2,0-7.1,3.3-7.1,7.4v0.1c0,4,3,7.4,7.2,7.4
		C481.5,329.1,484.4,325.8,484.4,321.7"/>
	<path class="st1" d="M493.2,323.4v-13.5h5.2v13.4c0,3.9,1.9,5.8,5.1,5.8c3.2,0,5.1-1.9,5.1-5.7v-13.5h5.2v13.3
		c0,7.2-4,10.7-10.4,10.7C497.1,333.8,493.2,330.3,493.2,323.4"/>
	<polygon class="st1" points="518.3,309.8 523.1,309.8 534.1,324.4 534.1,309.8 539.3,309.8 539.3,333.5 534.9,333.5 523.4,318.5 
		523.4,333.5 518.3,333.5 	"/>
	<path class="st1" d="M543.1,321.7L543.1,321.7c0-6.8,5.1-12.3,12.3-12.3c4.5,0,7.1,1.5,9.3,3.6l-3.3,3.8c-1.8-1.7-3.7-2.7-6-2.7
		c-4,0-6.8,3.3-6.8,7.4v0.1c0,4,2.8,7.4,6.8,7.4c2.7,0,4.4-1.1,6.2-2.8l3.3,3.3c-2.4,2.6-5.1,4.2-9.7,4.2
		C548.2,333.9,543.1,328.5,543.1,321.7"/>
	<rect x="568.4" y="309.8" class="st1" width="5.2" height="23.6"/>
	<polygon class="st1" points="578.7,309.8 583.9,309.8 583.9,328.8 595.7,328.8 595.7,333.5 578.7,333.5 	"/>
	<polygon class="st4" points="259,349.6 251.9,349.6 251.9,344.8 271.4,344.8 271.4,349.6 264.2,349.6 264.2,368.5 259,368.5 	"/>
	<path class="st4" d="M272.5,356.7L272.5,356.7c0-6.8,5.3-12.3,12.6-12.3c7.3,0,12.5,5.4,12.5,12.2v0.1c0,6.7-5.3,12.2-12.6,12.2
		C277.8,368.9,272.5,363.4,272.5,356.7 M292.2,356.7L292.2,356.7c0-4.1-3-7.5-7.2-7.5c-4.2,0-7.1,3.3-7.1,7.4v0.1
		c0,4.1,3,7.4,7.2,7.4C289.3,364.1,292.2,360.8,292.2,356.7"/>
	<rect x="301.7" y="344.8" class="st4" width="5.2" height="23.6"/>
	<polygon class="st4" points="321.3,344.8 326.9,344.8 333.1,354.8 339.3,344.8 344.9,344.8 344.9,368.5 339.7,368.5 339.7,353 
		333.1,363.1 332.9,363.1 326.4,353.1 326.4,368.5 321.3,368.5 	"/>
	<path class="st4" d="M348.7,356.7L348.7,356.7c0-6.8,5.3-12.3,12.6-12.3c7.3,0,12.5,5.4,12.5,12.2v0.1c0,6.7-5.3,12.2-12.6,12.2
		C353.9,368.9,348.7,363.4,348.7,356.7 M368.4,356.7L368.4,356.7c0-4.1-3-7.5-7.2-7.5c-4.2,0-7.1,3.3-7.1,7.4v0.1
		c0,4.1,3,7.4,7.2,7.4C365.5,364.1,368.4,360.8,368.4,356.7"/>
	<path class="st4" d="M384.2,344.7h4.8l10.1,23.8h-5.4l-2.2-5.3h-10l-2.2,5.3h-5.3L384.2,344.7z M389.7,358.6l-3.1-7.7l-3.1,7.7
		H389.7z"/>
	<polygon class="st4" points="401.9,344.8 406.7,344.8 417.8,359.4 417.8,344.8 422.9,344.8 422.9,368.5 418.5,368.5 407.1,353.4 
		407.1,368.5 401.9,368.5 	"/>
	<path class="st4" d="M435.9,344.7h4.8l10.1,23.8h-5.4l-2.2-5.3h-10l-2.2,5.3h-5.3L435.9,344.7z M441.4,358.6l-3.1-7.7l-3.1,7.7
		H441.4z"/>
</g>
</svg>
